<svg width="1200" height="720" viewBox="0 0 1200 720" fill="none" xmlns="http://www.w3.org/2000/svg">
  <rect width="1200" height="720" rx="48" fill="#07111E"/>
  <defs>
    <linearGradient id="g1" x1="140" y1="100" x2="1040" y2="640" gradientUnits="userSpaceOnUse">
      <stop stop-color="#22D3EE" stop-opacity="0.16"/>
      <stop offset="0.5" stop-color="#34D399" stop-opacity="0.22"/>
      <stop offset="1" stop-color="#A78BFA" stop-opacity="0.10"/>
    </linearGradient>
    <filter id="blur" x="-20%" y="-20%" width="140%" height="140%">
      <feGaussianBlur stdDeviation="26" />
    </filter>
    <pattern id="grid" width="44" height="44" patternUnits="userSpaceOnUse">
      <path d="M 44 0 L 0 0 0 44" fill="none" stroke="#FFFFFF" stroke-opacity="0.04" stroke-width="1"/>
    </pattern>
  </defs>
  <rect width="1200" height="720" fill="url(#grid)"/>
  <circle cx="220" cy="170" r="128" fill="#22D3EE" fill-opacity="0.13" filter="url(#blur)"/>
  <circle cx="980" cy="548" r="164" fill="#34D399" fill-opacity="0.10" filter="url(#blur)"/>
  <circle cx="620" cy="336" r="248" fill="url(#g1)" filter="url(#blur)"/>

  <g opacity="0.96">
    <rect x="180" y="132" width="840" height="456" rx="36" fill="#0A1524" stroke="#7DD3FC" stroke-opacity="0.12"/>
    <path d="M240 204C292 168 344 154 396 154C448 154 506 170 570 204" stroke="#FFFFFF" stroke-opacity="0.08" stroke-width="2"/>
    <path d="M924 204C872 168 820 154 768 154C716 154 658 170 594 204" stroke="#FFFFFF" stroke-opacity="0.08" stroke-width="2"/>

    <circle cx="378" cy="332" r="118" stroke="#34D399" stroke-opacity="0.68" stroke-width="6"/>
    <circle cx="378" cy="332" r="76" stroke="#22D3EE" stroke-opacity="0.55" stroke-width="6"/>
    <circle cx="378" cy="332" r="18" fill="#A7F3D0"/>

    <circle cx="760" cy="330" r="144" stroke="#A78BFA" stroke-opacity="0.40" stroke-width="6"/>
    <circle cx="760" cy="330" r="96" stroke="#22D3EE" stroke-opacity="0.45" stroke-width="6"/>
    <circle cx="760" cy="330" r="22" fill="#7DD3FC"/>

    <path d="M378 214V146M378 450V536M260 332H192M466 332H538" stroke="#34D399" stroke-opacity="0.45" stroke-width="4" stroke-linecap="round"/>
    <path d="M760 186V136M760 518V570M622 330H556M964 330H1030" stroke="#22D3EE" stroke-opacity="0.38" stroke-width="4" stroke-linecap="round"/>

    <rect x="546" y="208" width="150" height="40" rx="20" fill="#0F172A" stroke="#34D399" stroke-opacity="0.16"/>
    <rect x="546" y="262" width="190" height="40" rx="20" fill="#0F172A" stroke="#22D3EE" stroke-opacity="0.16"/>
    <rect x="546" y="316" width="140" height="40" rx="20" fill="#0F172A" stroke="#A78BFA" stroke-opacity="0.16"/>
    <rect x="546" y="370" width="220" height="40" rx="20" fill="#0F172A" stroke="#7DD3FC" stroke-opacity="0.14"/>
    <rect x="546" y="424" width="170" height="40" rx="20" fill="#0F172A" stroke="#34D399" stroke-opacity="0.16"/>

    <circle cx="584" cy="228" r="7" fill="#34D399"/>
    <circle cx="584" cy="282" r="7" fill="#22D3EE"/>
    <circle cx="584" cy="336" r="7" fill="#A78BFA"/>
    <circle cx="584" cy="390" r="7" fill="#7DD3FC"/>
    <circle cx="584" cy="444" r="7" fill="#34D399"/>

    <path d="M436 332H520" stroke="#34D399" stroke-opacity="0.5" stroke-width="4" stroke-linecap="round"/>
    <path d="M626 330H704" stroke="#22D3EE" stroke-opacity="0.5" stroke-width="4" stroke-linecap="round"/>
  </g>
</svg>
