<svg width="1200" height="720" viewBox="0 0 1200 720" fill="none" xmlns="http://www.w3.org/2000/svg">
  <rect width="1200" height="720" rx="48" fill="#07111E"/>
  <defs>
    <linearGradient id="g1" x1="160" y1="120" x2="1040" y2="620" gradientUnits="userSpaceOnUse">
      <stop stop-color="#A78BFA" stop-opacity="0.24"/>
      <stop offset="0.55" stop-color="#60A5FA" stop-opacity="0.18"/>
      <stop offset="1" stop-color="#34D399" stop-opacity="0.10"/>
    </linearGradient>
    <filter id="blur" x="-20%" y="-20%" width="140%" height="140%">
      <feGaussianBlur stdDeviation="26" />
    </filter>
    <pattern id="grid" width="42" height="42" patternUnits="userSpaceOnUse">
      <path d="M 42 0 L 0 0 0 42" fill="none" stroke="#FFFFFF" stroke-opacity="0.04" stroke-width="1"/>
    </pattern>
  </defs>
  <rect width="1200" height="720" fill="url(#grid)"/>
  <circle cx="220" cy="160" r="122" fill="#A78BFA" fill-opacity="0.14" filter="url(#blur)"/>
  <circle cx="1010" cy="560" r="176" fill="#34D399" fill-opacity="0.08" filter="url(#blur)"/>
  <circle cx="642" cy="332" r="250" fill="url(#g1)" filter="url(#blur)"/>

  <g opacity="0.95">
    <rect x="226" y="124" width="748" height="472" rx="36" fill="#0B1626" stroke="#7DD3FC" stroke-opacity="0.12"/>
    <rect x="286" y="178" width="628" height="48" rx="16" fill="#E2E8F0" fill-opacity="0.06"/>
    <rect x="286" y="248" width="200" height="300" rx="28" fill="#0A1524" stroke="#A78BFA" stroke-opacity="0.16"/>
    <rect x="514" y="248" width="400" height="140" rx="28" fill="#0F172A" stroke="#60A5FA" stroke-opacity="0.16"/>
    <rect x="514" y="412" width="400" height="136" rx="28" fill="#0E1C2D" stroke="#34D399" stroke-opacity="0.16"/>
    <rect x="320" y="296" width="120" height="16" rx="8" fill="#A78BFA" fill-opacity="0.6"/>
    <rect x="320" y="330" width="152" height="16" rx="8" fill="#FFFFFF" fill-opacity="0.10"/>
    <rect x="320" y="364" width="104" height="16" rx="8" fill="#FFFFFF" fill-opacity="0.10"/>
    <rect x="544" y="284" width="250" height="18" rx="9" fill="#60A5FA" fill-opacity="0.26"/>
    <rect x="544" y="320" width="312" height="18" rx="9" fill="#FFFFFF" fill-opacity="0.10"/>
    <rect x="544" y="448" width="266" height="18" rx="9" fill="#34D399" fill-opacity="0.22"/>
    <rect x="544" y="484" width="176" height="18" rx="9" fill="#FFFFFF" fill-opacity="0.10"/>
    <path d="M286 190H914" stroke="#FFFFFF" stroke-opacity="0.06" stroke-width="2"/>
    <path d="M286 270H914" stroke="#FFFFFF" stroke-opacity="0.04" stroke-width="2"/>
    <path d="M506 248V548" stroke="#FFFFFF" stroke-opacity="0.08" stroke-width="2"/>
    <path d="M740 412V548" stroke="#FFFFFF" stroke-opacity="0.08" stroke-width="2"/>
    <path d="M586 300C566 300 552 316 552 336C552 356 566 372 586 372" stroke="#E2E8F0" stroke-opacity="0.9" stroke-width="8" stroke-linecap="round"/>
    <path d="M734 300C754 300 768 316 768 336C768 356 754 372 734 372" stroke="#E2E8F0" stroke-opacity="0.9" stroke-width="8" stroke-linecap="round"/>
    <path d="M620 300H700" stroke="#A78BFA" stroke-width="8" stroke-linecap="round"/>
    <path d="M620 372H700" stroke="#60A5FA" stroke-width="8" stroke-linecap="round"/>
    <path d="M582 426H746" stroke="#34D399" stroke-width="8" stroke-linecap="round"/>
    <path d="M582 458H714" stroke="#E2E8F0" stroke-opacity="0.7" stroke-width="8" stroke-linecap="round"/>
    <path d="M582 490H680" stroke="#E2E8F0" stroke-opacity="0.5" stroke-width="8" stroke-linecap="round"/>
    <circle cx="338" cy="500" r="16" stroke="#34D399" stroke-width="4"/>
    <circle cx="338" cy="500" r="6" fill="#A7F3D0"/>
    <circle cx="588" cy="340" r="18" stroke="#22D3EE" stroke-width="4"/>
    <circle cx="588" cy="340" r="7" fill="#22D3EE"/>
    <circle cx="792" cy="476" r="18" stroke="#A78BFA" stroke-width="4"/>
    <circle cx="792" cy="476" r="7" fill="#C4B5FD"/>
  </g>
</svg>
