<svg width="1200" height="720" viewBox="0 0 1200 720" fill="none" xmlns="http://www.w3.org/2000/svg">
  <rect width="1200" height="720" rx="48" fill="#07111E"/>
  <defs>
    <linearGradient id="g1" x1="160" y1="120" x2="1040" y2="620" gradientUnits="userSpaceOnUse">
      <stop stop-color="#34D399" stop-opacity="0.28"/>
      <stop offset="0.5" stop-color="#14B8A6" stop-opacity="0.20"/>
      <stop offset="1" stop-color="#7DD3FC" stop-opacity="0.08"/>
    </linearGradient>
    <linearGradient id="g2" x1="220" y1="180" x2="980" y2="560" gradientUnits="userSpaceOnUse">
      <stop stop-color="#ECFEFF" stop-opacity="0.92"/>
      <stop offset="1" stop-color="#A7F3D0" stop-opacity="0.16"/>
    </linearGradient>
    <filter id="blur" x="-20%" y="-20%" width="140%" height="140%">
      <feGaussianBlur stdDeviation="24" />
    </filter>
    <pattern id="grid" width="48" height="48" patternUnits="userSpaceOnUse">
      <path d="M 48 0 L 0 0 0 48" fill="none" stroke="#FFFFFF" stroke-opacity="0.04" stroke-width="1"/>
    </pattern>
  </defs>
  <rect width="1200" height="720" fill="url(#grid)"/>
  <circle cx="250" cy="180" r="132" fill="#14B8A6" fill-opacity="0.18" filter="url(#blur)"/>
  <circle cx="920" cy="540" r="168" fill="#22D3EE" fill-opacity="0.10" filter="url(#blur)"/>
  <circle cx="640" cy="340" r="220" fill="url(#g1)" fill-opacity="0.55" filter="url(#blur)"/>

  <g opacity="0.95">
    <rect x="270" y="160" width="660" height="400" rx="36" fill="#0B1626" stroke="#7DD3FC" stroke-opacity="0.14"/>
    <rect x="314" y="214" width="552" height="84" rx="24" fill="#0F172A" stroke="#34D399" stroke-opacity="0.16"/>
    <rect x="314" y="316" width="272" height="192" rx="24" fill="#0A1524" stroke="#22D3EE" stroke-opacity="0.12"/>
    <rect x="610" y="316" width="256" height="192" rx="24" fill="#0E1C2D" stroke="#A78BFA" stroke-opacity="0.12"/>
    <circle cx="394" cy="256" r="32" stroke="#A7F3D0" stroke-width="8"/>
    <path d="M394 224V206M394 286V304M362 256H344M414 256H432" stroke="#A7F3D0" stroke-width="8" stroke-linecap="round"/>
    <path d="M470 242H792M470 266H704" stroke="#ECFEFF" stroke-opacity="0.24" stroke-width="6" stroke-linecap="round"/>
    <rect x="344" y="360" width="176" height="20" rx="10" fill="#A7F3D0" fill-opacity="0.26"/>
    <rect x="344" y="396" width="120" height="20" rx="10" fill="#FFFFFF" fill-opacity="0.10"/>
    <rect x="344" y="432" width="144" height="20" rx="10" fill="#FFFFFF" fill-opacity="0.10"/>
    <rect x="640" y="360" width="168" height="20" rx="10" fill="#22D3EE" fill-opacity="0.24"/>
    <rect x="640" y="396" width="104" height="20" rx="10" fill="#FFFFFF" fill-opacity="0.10"/>
    <rect x="640" y="432" width="138" height="20" rx="10" fill="#FFFFFF" fill-opacity="0.10"/>
    <path d="M310 536H820" stroke="#FFFFFF" stroke-opacity="0.05" stroke-width="2"/>
    <circle cx="562" cy="412" r="54" stroke="#34D399" stroke-opacity="0.7" stroke-width="5"/>
    <circle cx="562" cy="412" r="18" fill="#A7F3D0"/>
  </g>
</svg>
