<svg width="1200" height="720" viewBox="0 0 1200 720" fill="none" xmlns="http://www.w3.org/2000/svg">
  <rect width="1200" height="720" rx="48" fill="#07111E"/>
  <defs>
    <linearGradient id="g1" x1="160" y1="120" x2="1040" y2="620" gradientUnits="userSpaceOnUse">
      <stop stop-color="#22D3EE" stop-opacity="0.22"/>
      <stop offset="0.55" stop-color="#34D399" stop-opacity="0.24"/>
      <stop offset="1" stop-color="#A78BFA" stop-opacity="0.12"/>
    </linearGradient>
    <filter id="blur" x="-20%" y="-20%" width="140%" height="140%">
      <feGaussianBlur stdDeviation="24" />
    </filter>
    <pattern id="grid" width="44" height="44" patternUnits="userSpaceOnUse">
      <path d="M 44 0 L 0 0 0 44" fill="none" stroke="#FFFFFF" stroke-opacity="0.04" stroke-width="1"/>
    </pattern>
  </defs>
  <rect width="1200" height="720" fill="url(#grid)"/>
  <circle cx="220" cy="160" r="122" fill="#22D3EE" fill-opacity="0.14" filter="url(#blur)"/>
  <circle cx="1010" cy="560" r="176" fill="#34D399" fill-opacity="0.08" filter="url(#blur)"/>
  <circle cx="642" cy="332" r="250" fill="url(#g1)" filter="url(#blur)"/>

  <g opacity="0.95">
    <rect x="226" y="124" width="748" height="472" rx="36" fill="#0B1626" stroke="#7DD3FC" stroke-opacity="0.12"/>
    <rect x="286" y="178" width="628" height="48" rx="16" fill="#E2E8F0" fill-opacity="0.06"/>
    <rect x="286" y="248" width="200" height="300" rx="28" fill="#0A1524" stroke="#22D3EE" stroke-opacity="0.14"/>
    <rect x="514" y="248" width="400" height="140" rx="28" fill="#0F172A" stroke="#34D399" stroke-opacity="0.16"/>
    <rect x="514" y="412" width="400" height="136" rx="28" fill="#0E1C2D" stroke="#A78BFA" stroke-opacity="0.16"/>
    <rect x="320" y="296" width="120" height="16" rx="8" fill="#34D399" fill-opacity="0.6"/>
    <rect x="320" y="330" width="152" height="16" rx="8" fill="#FFFFFF" fill-opacity="0.10"/>
    <rect x="320" y="364" width="104" height="16" rx="8" fill="#FFFFFF" fill-opacity="0.10"/>
    <rect x="544" y="284" width="250" height="18" rx="9" fill="#22D3EE" fill-opacity="0.26"/>
    <rect x="544" y="320" width="312" height="18" rx="9" fill="#FFFFFF" fill-opacity="0.10"/>
    <rect x="544" y="448" width="266" height="18" rx="9" fill="#A78BFA" fill-opacity="0.22"/>
    <rect x="544" y="484" width="176" height="18" rx="9" fill="#FFFFFF" fill-opacity="0.10"/>
    <path d="M286 190H914" stroke="#FFFFFF" stroke-opacity="0.06" stroke-width="2"/>
    <path d="M286 270H914" stroke="#FFFFFF" stroke-opacity="0.04" stroke-width="2"/>
    <path d="M506 248V548" stroke="#FFFFFF" stroke-opacity="0.08" stroke-width="2"/>
    <path d="M740 412V548" stroke="#FFFFFF" stroke-opacity="0.08" stroke-width="2"/>
    <g transform="translate(560 258)">
      <rect x="0" y="0" width="32" height="32" rx="6" fill="#ECFEFF" fill-opacity="0.2"/>
      <rect x="42" y="0" width="18" height="18" rx="4" fill="#A7F3D0"/>
      <rect x="68" y="0" width="18" height="18" rx="4" fill="#22D3EE"/>
      <rect x="42" y="26" width="18" height="18" rx="4" fill="#A78BFA"/>
      <rect x="68" y="26" width="18" height="18" rx="4" fill="#ECFEFF" fill-opacity="0.36"/>
      <rect x="0" y="42" width="18" height="18" rx="4" fill="#22D3EE"/>
      <rect x="26" y="42" width="18" height="18" rx="4" fill="#A7F3D0"/>
      <rect x="68" y="58" width="18" height="18" rx="4" fill="#A78BFA"/>
      <rect x="0" y="68" width="18" height="18" rx="4" fill="#ECFEFF" fill-opacity="0.36"/>
      <rect x="26" y="68" width="18" height="18" rx="4" fill="#22D3EE"/>
      <rect x="52" y="84" width="18" height="18" rx="4" fill="#A7F3D0"/>
      <rect x="78" y="84" width="18" height="18" rx="4" fill="#ECFEFF" fill-opacity="0.44"/>
    </g>
    <circle cx="338" cy="500" r="16" stroke="#34D399" stroke-width="4"/>
    <circle cx="338" cy="500" r="6" fill="#A7F3D0"/>
    <circle cx="588" cy="340" r="18" stroke="#22D3EE" stroke-width="4"/>
    <circle cx="588" cy="340" r="7" fill="#22D3EE"/>
    <circle cx="792" cy="476" r="18" stroke="#A78BFA" stroke-width="4"/>
    <circle cx="792" cy="476" r="7" fill="#C4B5FD"/>
  </g>
</svg>
