<svg width="1200" height="720" viewBox="0 0 1200 720" fill="none" xmlns="http://www.w3.org/2000/svg">
  <rect width="1200" height="720" rx="48" fill="#07111E"/>
  <defs>
    <linearGradient id="g1" x1="150" y1="110" x2="1040" y2="640" gradientUnits="userSpaceOnUse">
      <stop stop-color="#A78BFA" stop-opacity="0.16"/>
      <stop offset="0.5" stop-color="#22D3EE" stop-opacity="0.18"/>
      <stop offset="1" stop-color="#34D399" stop-opacity="0.18"/>
    </linearGradient>
    <filter id="blur" x="-20%" y="-20%" width="140%" height="140%">
      <feGaussianBlur stdDeviation="26" />
    </filter>
    <pattern id="grid" width="44" height="44" patternUnits="userSpaceOnUse">
      <path d="M 44 0 L 0 0 0 44" fill="none" stroke="#FFFFFF" stroke-opacity="0.04" stroke-width="1"/>
    </pattern>
  </defs>
  <rect width="1200" height="720" fill="url(#grid)"/>
  <circle cx="240" cy="168" r="136" fill="#A78BFA" fill-opacity="0.12" filter="url(#blur)"/>
  <circle cx="984" cy="540" r="168" fill="#34D399" fill-opacity="0.10" filter="url(#blur)"/>
  <circle cx="646" cy="332" r="256" fill="url(#g1)" filter="url(#blur)"/>

  <g opacity="0.96">
    <rect x="166" y="130" width="868" height="460" rx="36" fill="#0A1524" stroke="#7DD3FC" stroke-opacity="0.12"/>
    <rect x="226" y="180" width="180" height="108" rx="24" fill="#0F172A" stroke="#34D399" stroke-opacity="0.16"/>
    <rect x="432" y="180" width="180" height="108" rx="24" fill="#0E1C2D" stroke="#22D3EE" stroke-opacity="0.16"/>
    <rect x="638" y="180" width="180" height="108" rx="24" fill="#0F172A" stroke="#A78BFA" stroke-opacity="0.16"/>
    <rect x="844" y="180" width="128" height="108" rx="24" fill="#0E1C2D" stroke="#7DD3FC" stroke-opacity="0.16"/>

    <rect x="226" y="320" width="740" height="160" rx="30" fill="#0E1C2D" stroke="#FFFFFF" stroke-opacity="0.06"/>
    <rect x="252" y="346" width="160" height="18" rx="9" fill="#34D399" fill-opacity="0.40"/>
    <rect x="252" y="380" width="240" height="18" rx="9" fill="#FFFFFF" fill-opacity="0.10"/>
    <rect x="252" y="414" width="200" height="18" rx="9" fill="#22D3EE" fill-opacity="0.24"/>

    <path d="M406 234H432" stroke="#34D399" stroke-width="4" stroke-linecap="round"/>
    <path d="M612 234H638" stroke="#22D3EE" stroke-width="4" stroke-linecap="round"/>
    <path d="M818 234H844" stroke="#A78BFA" stroke-width="4" stroke-linecap="round"/>
    <path d="M506 288V320" stroke="#34D399" stroke-opacity="0.45" stroke-width="4" stroke-linecap="round"/>
    <path d="M712 288V320" stroke="#22D3EE" stroke-opacity="0.45" stroke-width="4" stroke-linecap="round"/>
    <path d="M918 288V320" stroke="#A78BFA" stroke-opacity="0.45" stroke-width="4" stroke-linecap="round"/>

    <rect x="570" y="370" width="320" height="40" rx="20" fill="#0F172A" stroke="#34D399" stroke-opacity="0.18"/>
    <path d="M560 390H548" stroke="#34D399" stroke-width="4" stroke-linecap="round"/>
    <path d="M890 390H924" stroke="#34D399" stroke-width="4" stroke-linecap="round"/>
    <path d="M500 230L500 356" stroke="#34D399" stroke-opacity="0.20" stroke-width="3" stroke-dasharray="10 12"/>
    <path d="M706 230L706 356" stroke="#22D3EE" stroke-opacity="0.20" stroke-width="3" stroke-dasharray="10 12"/>
    <path d="M912 230L912 356" stroke="#A78BFA" stroke-opacity="0.20" stroke-width="3" stroke-dasharray="10 12"/>
  </g>
</svg>
