<svg width="1200" height="720" viewBox="0 0 1200 720" fill="none" xmlns="http://www.w3.org/2000/svg">
  <rect width="1200" height="720" rx="48" fill="#07111E"/>
  <defs>
    <linearGradient id="g1" x1="160" y1="120" x2="1040" y2="620" gradientUnits="userSpaceOnUse">
      <stop stop-color="#22D3EE" stop-opacity="0.20"/>
      <stop offset="0.55" stop-color="#F59E0B" stop-opacity="0.16"/>
      <stop offset="1" stop-color="#34D399" stop-opacity="0.10"/>
    </linearGradient>
    <filter id="blur" x="-20%" y="-20%" width="140%" height="140%">
      <feGaussianBlur stdDeviation="26" />
    </filter>
    <pattern id="grid" width="44" height="44" patternUnits="userSpaceOnUse">
      <path d="M 44 0 L 0 0 0 44" fill="none" stroke="#FFFFFF" stroke-opacity="0.04" stroke-width="1"/>
    </pattern>
  </defs>
  <rect width="1200" height="720" fill="url(#grid)"/>
  <circle cx="220" cy="160" r="122" fill="#22D3EE" fill-opacity="0.14" filter="url(#blur)"/>
  <circle cx="1010" cy="560" r="176" fill="#34D399" fill-opacity="0.08" filter="url(#blur)"/>
  <circle cx="642" cy="332" r="250" fill="url(#g1)" filter="url(#blur)"/>

  <g opacity="0.95">
    <rect x="226" y="124" width="748" height="472" rx="36" fill="#0B1626" stroke="#7DD3FC" stroke-opacity="0.12"/>
    <rect x="286" y="178" width="628" height="48" rx="16" fill="#E2E8F0" fill-opacity="0.06"/>
    <rect x="286" y="248" width="200" height="300" rx="28" fill="#0A1524" stroke="#22D3EE" stroke-opacity="0.14"/>
    <rect x="514" y="248" width="400" height="140" rx="28" fill="#0F172A" stroke="#F59E0B" stroke-opacity="0.16"/>
    <rect x="514" y="412" width="400" height="136" rx="28" fill="#0E1C2D" stroke="#34D399" stroke-opacity="0.16"/>
    <rect x="320" y="296" width="120" height="16" rx="8" fill="#22D3EE" fill-opacity="0.6"/>
    <rect x="320" y="330" width="152" height="16" rx="8" fill="#FFFFFF" fill-opacity="0.10"/>
    <rect x="320" y="364" width="104" height="16" rx="8" fill="#FFFFFF" fill-opacity="0.10"/>
    <rect x="544" y="284" width="250" height="18" rx="9" fill="#F59E0B" fill-opacity="0.26"/>
    <rect x="544" y="320" width="312" height="18" rx="9" fill="#FFFFFF" fill-opacity="0.10"/>
    <rect x="544" y="448" width="266" height="18" rx="9" fill="#34D399" fill-opacity="0.22"/>
    <rect x="544" y="484" width="176" height="18" rx="9" fill="#FFFFFF" fill-opacity="0.10"/>
    <path d="M286 190H914" stroke="#FFFFFF" stroke-opacity="0.06" stroke-width="2"/>
    <path d="M286 270H914" stroke="#FFFFFF" stroke-opacity="0.04" stroke-width="2"/>
    <path d="M506 248V548" stroke="#FFFFFF" stroke-opacity="0.08" stroke-width="2"/>
    <path d="M740 412V548" stroke="#FFFFFF" stroke-opacity="0.08" stroke-width="2"/>
    <path d="M586 318C586 286 610 268 642 268C674 268 698 286 698 318C698 350 674 368 642 368C610 368 586 350 586 318Z" stroke="#22D3EE" stroke-width="8" stroke-linejoin="round"/>
    <path d="M642 268V248" stroke="#22D3EE" stroke-width="8" stroke-linecap="round"/>
    <path d="M642 368V388" stroke="#22D3EE" stroke-width="8" stroke-linecap="round"/>
    <path d="M738 302C760 306 776 324 776 346C776 370 758 390 734 394" stroke="#F59E0B" stroke-width="8" stroke-linecap="round"/>
    <path d="M546 394C520 390 504 372 504 348C504 326 520 308 542 302" stroke="#34D399" stroke-width="8" stroke-linecap="round"/>
    <path d="M572 438H700" stroke="#22D3EE" stroke-width="8" stroke-linecap="round"/>
    <path d="M572 470H748" stroke="#F59E0B" stroke-width="8" stroke-linecap="round"/>
    <path d="M572 502H670" stroke="#34D399" stroke-width="8" stroke-linecap="round"/>
    <circle cx="338" cy="500" r="16" stroke="#34D399" stroke-width="4"/>
    <circle cx="338" cy="500" r="6" fill="#A7F3D0"/>
    <circle cx="588" cy="340" r="18" stroke="#22D3EE" stroke-width="4"/>
    <circle cx="588" cy="340" r="7" fill="#22D3EE"/>
    <circle cx="792" cy="476" r="18" stroke="#A78BFA" stroke-width="4"/>
    <circle cx="792" cy="476" r="7" fill="#C4B5FD"/>
  </g>
</svg>
