<svg width="1200" height="720" viewBox="0 0 1200 720" fill="none" xmlns="http://www.w3.org/2000/svg">
  <rect width="1200" height="720" rx="48" fill="#07111E"/>
  <defs>
    <linearGradient id="g1" x1="160" y1="120" x2="1020" y2="620" gradientUnits="userSpaceOnUse">
      <stop stop-color="#34D399" stop-opacity="0.18"/>
      <stop offset="0.5" stop-color="#22D3EE" stop-opacity="0.22"/>
      <stop offset="1" stop-color="#A78BFA" stop-opacity="0.10"/>
    </linearGradient>
    <filter id="blur" x="-20%" y="-20%" width="140%" height="140%">
      <feGaussianBlur stdDeviation="26" />
    </filter>
    <pattern id="grid" width="40" height="40" patternUnits="userSpaceOnUse">
      <path d="M 40 0 L 0 0 0 40" fill="none" stroke="#FFFFFF" stroke-opacity="0.04" stroke-width="1"/>
    </pattern>
  </defs>
  <rect width="1200" height="720" fill="url(#grid)"/>
  <circle cx="280" cy="150" r="132" fill="#34D399" fill-opacity="0.14" filter="url(#blur)"/>
  <circle cx="918" cy="540" r="176" fill="#22D3EE" fill-opacity="0.08" filter="url(#blur)"/>
  <circle cx="612" cy="332" r="248" fill="url(#g1)" filter="url(#blur)"/>

  <g opacity="0.96">
    <rect x="184" y="144" width="832" height="430" rx="34" fill="#0A1524" stroke="#7DD3FC" stroke-opacity="0.14"/>
    <rect x="224" y="184" width="752" height="56" rx="18" fill="#FFFFFF" fill-opacity="0.05"/>
    <rect x="252" y="208" width="100" height="10" rx="5" fill="#34D399" fill-opacity="0.7"/>
    <rect x="252" y="268" width="300" height="44" rx="14" fill="#0F172A" stroke="#FFFFFF" stroke-opacity="0.06"/>
    <rect x="572" y="268" width="220" height="44" rx="14" fill="#14B8A6" fill-opacity="0.24" stroke="#34D399" stroke-opacity="0.30"/>
    <rect x="812" y="268" width="140" height="44" rx="14" fill="#22D3EE" fill-opacity="0.18" stroke="#22D3EE" stroke-opacity="0.24"/>
    <rect x="252" y="330" width="700" height="192" rx="28" fill="#0E1C2D" stroke="#34D399" stroke-opacity="0.12"/>
    <circle cx="390" cy="426" r="80" stroke="#34D399" stroke-width="6"/>
    <circle cx="390" cy="426" r="44" stroke="#22D3EE" stroke-width="6"/>
    <circle cx="390" cy="426" r="12" fill="#A7F3D0"/>
    <path d="M492 426H640" stroke="#7DD3FC" stroke-opacity="0.35" stroke-width="4" stroke-linecap="round"/>
    <path d="M640 426L684 388" stroke="#34D399" stroke-opacity="0.55" stroke-width="4" stroke-linecap="round"/>
    <path d="M640 426L708 456" stroke="#A78BFA" stroke-opacity="0.55" stroke-width="4" stroke-linecap="round"/>
    <rect x="734" y="362" width="168" height="32" rx="16" fill="#FFFFFF" fill-opacity="0.05"/>
    <rect x="734" y="410" width="126" height="32" rx="16" fill="#FFFFFF" fill-opacity="0.05"/>
    <rect x="734" y="458" width="198" height="32" rx="16" fill="#FFFFFF" fill-opacity="0.05"/>
    <circle cx="780" cy="378" r="8" fill="#34D399"/>
    <circle cx="780" cy="426" r="8" fill="#22D3EE"/>
    <circle cx="780" cy="474" r="8" fill="#A78BFA"/>
  </g>
</svg>
