<svg width="1200" height="720" viewBox="0 0 1200 720" fill="none" xmlns="http://www.w3.org/2000/svg">
  <defs>
    <linearGradient id="bg" x1="150" y1="70" x2="1060" y2="660" gradientUnits="userSpaceOnUse">
      <stop stop-color="#F8FFFC"/>
      <stop offset="0.55" stop-color="#FFFFFF"/>
      <stop offset="1" stop-color="#ECFEF8"/>
    </linearGradient>
    <radialGradient id="halo" cx="0" cy="0" r="1" gradientUnits="userSpaceOnUse" gradientTransform="translate(610 318) rotate(90) scale(260 440)">
      <stop stop-color="#10B981" stop-opacity="0.16"/>
      <stop offset="1" stop-color="#10B981" stop-opacity="0"/>
    </radialGradient>
    <pattern id="grid" width="48" height="48" patternUnits="userSpaceOnUse">
      <path d="M48 0H0V48" fill="none" stroke="#0F172A" stroke-opacity="0.045" stroke-width="1"/>
    </pattern>
    <filter id="shadow" x="120" y="88" width="960" height="560" filterUnits="userSpaceOnUse" color-interpolation-filters="sRGB">
      <feDropShadow dx="0" dy="28" stdDeviation="28" flood-color="#0F172A" flood-opacity="0.10"/>
    </filter>
  </defs>
  <rect width="1200" height="720" rx="48" fill="url(#bg)"/>
  <rect width="1200" height="720" rx="48" fill="url(#grid)"/>
  <circle cx="600" cy="320" r="290" fill="url(#halo)"/>

  <g filter="url(#shadow)">
    <rect x="180" y="118" width="840" height="486" rx="42" fill="#FFFFFF" fill-opacity="0.90" stroke="#DDE7E3"/>
    <rect x="228" y="166" width="744" height="76" rx="24" fill="#F7FAF9" stroke="#E4ECE8"/>
    <circle cx="270" cy="204" r="10" fill="#10B981"/>
    <text x="302" y="212" font-family="Inter, ui-sans-serif, system-ui" font-size="18" font-weight="800" letter-spacing="5" fill="#047857">OPS ORIGIN</text>
    <text x="228" y="474" font-family="Inter, ui-sans-serif, system-ui" font-size="46" font-weight="900" fill="#18181B">Unified SRE Toolkit</text>
    <rect x="820" y="184" width="112" height="38" rx="19" fill="#ECFDF5" stroke="#B7F0D3"/>
    <text x="876" y="208" text-anchor="middle" font-family="Inter, ui-sans-serif, system-ui" font-size="13" font-weight="800" letter-spacing="2" fill="#059669">READY</text>
    <circle cx="600" cy="310" r="78" fill="none" stroke="#10B981" stroke-width="8"/><circle cx="600" cy="310" r="34" fill="#10B981" fill-opacity="0.14" stroke="#10B981" stroke-width="5"/><path d="M600 310L674 286" stroke="#10B981" stroke-width="8" stroke-linecap="round"/><circle cx="600" cy="310" r="8" fill="#10B981"/>
    <g><rect x="320" y="498" width="160" height="46" rx="23" fill="#FFFFFF" stroke="#DDE7E3"/><text x="400" y="528" text-anchor="middle" font-family="Inter, ui-sans-serif, system-ui" font-size="17" font-weight="700" fill="#3F3F46" letter-spacing="2">DNS</text></g>
    <g><rect x="525" y="498" width="160" height="46" rx="23" fill="#FFFFFF" stroke="#DDE7E3"/><text x="605" y="528" text-anchor="middle" font-family="Inter, ui-sans-serif, system-ui" font-size="17" font-weight="700" fill="#3F3F46" letter-spacing="2">IP</text></g>
    <g><rect x="730" y="498" width="160" height="46" rx="23" fill="#FFFFFF" stroke="#DDE7E3"/><text x="810" y="528" text-anchor="middle" font-family="Inter, ui-sans-serif, system-ui" font-size="17" font-weight="700" fill="#3F3F46" letter-spacing="2">SSL</text></g>
  </g>
</svg>
