<svg width="1200" height="720" viewBox="0 0 1200 720" fill="none" xmlns="http://www.w3.org/2000/svg">
  <rect width="1200" height="720" rx="48" fill="#07111E"/>
  <defs>
    <linearGradient id="g1" x1="140" y1="120" x2="1040" y2="640" gradientUnits="userSpaceOnUse">
      <stop stop-color="#0F766E" stop-opacity="0.95"/>
      <stop offset="0.52" stop-color="#14B8A6" stop-opacity="0.45"/>
      <stop offset="1" stop-color="#7DD3FC" stop-opacity="0.08"/>
    </linearGradient>
    <linearGradient id="g2" x1="220" y1="180" x2="1000" y2="560" gradientUnits="userSpaceOnUse">
      <stop stop-color="#ECFEFF" stop-opacity="0.9"/>
      <stop offset="1" stop-color="#A7F3D0" stop-opacity="0.18"/>
    </linearGradient>
    <filter id="blur" x="-20%" y="-20%" width="140%" height="140%">
      <feGaussianBlur stdDeviation="24" />
    </filter>
    <pattern id="grid" width="48" height="48" patternUnits="userSpaceOnUse">
      <path d="M 48 0 L 0 0 0 48" fill="none" stroke="#FFFFFF" stroke-opacity="0.04" stroke-width="1"/>
    </pattern>
  </defs>
  <rect width="1200" height="720" fill="url(#grid)"/>
  <circle cx="250" cy="180" r="132" fill="#14B8A6" fill-opacity="0.18" filter="url(#blur)"/>
  <circle cx="920" cy="540" r="168" fill="#22D3EE" fill-opacity="0.10" filter="url(#blur)"/>
  <circle cx="640" cy="340" r="220" fill="url(#g1)" fill-opacity="0.55" filter="url(#blur)"/>

  <g opacity="0.95">
    <rect x="270" y="160" width="660" height="400" rx="36" fill="#0B1626" stroke="#7DD3FC" stroke-opacity="0.14"/>
    <rect x="318" y="208" width="210" height="104" rx="24" fill="url(#g2)" fill-opacity="0.18" stroke="#A7F3D0" stroke-opacity="0.22"/>
    <rect x="560" y="208" width="318" height="104" rx="24" fill="#0E1C2D" stroke="#34D399" stroke-opacity="0.18"/>
    <rect x="318" y="340" width="560" height="172" rx="28" fill="#0A1524" stroke="#7DD3FC" stroke-opacity="0.10"/>
    <circle cx="392" cy="261" r="34" stroke="#34D399" stroke-width="8"/>
    <circle cx="392" cy="261" r="14" fill="#A7F3D0"/>
    <circle cx="650" cy="260" r="48" stroke="#22D3EE" stroke-opacity="0.7" stroke-width="4"/>
    <circle cx="650" cy="260" r="14" fill="#22D3EE"/>
    <circle cx="772" cy="260" r="38" stroke="#A78BFA" stroke-opacity="0.5" stroke-width="4"/>
    <circle cx="772" cy="260" r="10" fill="#A78BFA"/>
    <path d="M410 270C470 238 532 230 610 247" stroke="#34D399" stroke-width="4" stroke-linecap="round"/>
    <path d="M686 258C714 254 742 252 766 256" stroke="#22D3EE" stroke-width="4" stroke-linecap="round"/>
    <path d="M390 314V448M536 314V448M684 314V448M840 314V448" stroke="#FFFFFF" stroke-opacity="0.08" stroke-width="2"/>
    <rect x="348" y="372" width="128" height="34" rx="17" fill="#0F172A" stroke="#34D399" stroke-opacity="0.18"/>
    <rect x="496" y="372" width="176" height="34" rx="17" fill="#0F172A" stroke="#22D3EE" stroke-opacity="0.18"/>
    <rect x="694" y="372" width="128" height="34" rx="17" fill="#0F172A" stroke="#A78BFA" stroke-opacity="0.18"/>
    <rect x="348" y="420" width="348" height="16" rx="8" fill="#ECFEFF" fill-opacity="0.10"/>
    <rect x="348" y="448" width="260" height="16" rx="8" fill="#ECFEFF" fill-opacity="0.08"/>
    <rect x="650" y="420" width="172" height="16" rx="8" fill="#A7F3D0" fill-opacity="0.16"/>
  </g>
</svg>
